<svg xmlns="http://www.w3.org/2000/svg" viewBox="0 0 200 200" width="200" height="200">
  <defs>
    <linearGradient id="bodyGrad" x1="0%" y1="0%" x2="0%" y2="100%">
      <stop offset="0%" style="stop-color:#6366f1"/>
      <stop offset="100%" style="stop-color:#8b5cf6"/>
    </linearGradient>
  </defs>
  <!-- Body -->
  <path d="M100 20 C100 20 130 60 130 120 L120 145 L80 145 L70 120 C70 60 100 20 100 20Z" fill="url(#bodyGrad)" stroke="#4f46e5" stroke-width="2"/>
  <!-- Window -->
  <circle cx="100" cy="80" r="15" fill="#e0e7ff" stroke="#4f46e5" stroke-width="2"/>
  <circle cx="100" cy="80" r="8" fill="#818cf8"/>
  <!-- Fins -->
  <path d="M70 120 L45 150 L70 140Z" fill="#ec4899" stroke="#be185d" stroke-width="1.5"/>
  <path d="M130 120 L155 150 L130 140Z" fill="#ec4899" stroke="#be185d" stroke-width="1.5"/>
  <!-- Flame -->
  <path d="M85 145 L100 185 L115 145" fill="#f59e0b" stroke="#d97706" stroke-width="1"/>
  <path d="M90 145 L100 175 L110 145" fill="#fbbf24"/>
  <path d="M95 145 L100 165 L105 145" fill="#fef3c7"/>
</svg>
